<?xml version="1.0" standalone="no"?>
<!DOCTYPE svg PUBLIC "-//W3C//DTD SVG 20010904//EN"
 "http://www.w3.org/TR/2001/REC-SVG-20010904/DTD/svg10.dtd">
<svg version="1.0" xmlns="http://www.w3.org/2000/svg"
 width="90.000000pt" height="87.000000pt" viewBox="0 0 90.000000 87.000000"
 preserveAspectRatio="xMidYMid meet">

<g transform="translate(0.000000,87.000000) scale(0.100000,-0.100000)"
fill="#000000" stroke="none">
<path d="M1 763 c1 -60 4 -97 6 -83 8 49 46 141 72 173 13 16 11 17 -32 17
l-47 0 1 -107z"/>
<path d="M110 855 c0 -9 -14 -44 -32 -78 -27 -53 -32 -75 -36 -157 -3 -79 -1
-106 18 -160 12 -36 28 -73 37 -82 16 -18 15 -48 -2 -51 -14 -3 -74 119 -84
173 -6 31 -9 -41 -10 -227 l-1 -273 143 0 142 0 1 28 c0 15 22 117 48 227 26
110 49 208 51 219 3 10 -7 38 -20 61 -29 49 -31 65 -9 111 28 59 99 78 155 40
54 -35 62 -115 18 -162 l-21 -23 41 -169 c56 -231 72 -312 65 -323 -3 -5 55
-9 140 -9 l146 0 -1 263 -1 262 -22 -65 c-30 -87 -53 -130 -71 -130 -21 0 -19
9 16 83 62 133 53 297 -23 408 -13 20 -14 29 -6 37 9 9 -72 12 -335 12 -305 0
-347 -2 -347 -15z m100 -62 c0 -3 -12 -31 -27 -62 -24 -47 -28 -69 -28 -136 0
-68 4 -88 28 -134 19 -35 25 -57 19 -63 -15 -15 -30 -2 -51 45 -37 82 -44 144
-27 225 16 75 47 132 72 132 8 0 14 -3 14 -7z m545 -57 c25 -51 29 -70 28
-140 0 -67 -5 -91 -28 -139 -30 -62 -41 -75 -57 -59 -6 6 0 27 17 60 45 87 43
224 -5 292 -25 35 -26 52 -2 48 9 -2 30 -29 47 -62z m-455 -15 c0 -5 -8 -29
-19 -53 -21 -50 -20 -105 5 -159 18 -42 13 -60 -13 -43 -44 28 -56 180 -18
237 17 26 45 37 45 18z m350 -26 c22 -45 20 -172 -4 -207 -17 -27 -46 -38 -46
-19 0 5 7 26 16 47 26 62 27 98 5 150 -12 25 -21 51 -21 56 0 20 36 1 50 -27z"/>
<path d="M838 823 c14 -26 34 -70 43 -98 l18 -50 0 98 1 97 -44 0 -45 0 27
-47z"/>
<path d="M400 650 c-63 -63 30 -171 95 -110 31 29 35 52 18 88 -22 45 -79 56
-113 22z"/>
<path d="M417 456 c-2 -17 -7 -39 -12 -48 -6 -16 -1 -18 42 -18 l50 0 -9 48
c-9 44 -12 49 -38 49 -24 0 -29 -5 -33 -31z"/>
<path d="M390 343 c0 -5 -4 -25 -9 -45 l-9 -38 78 0 77 0 -10 45 -10 45 -59 0
c-32 0 -58 -3 -58 -7z"/>
<path d="M353 175 l-10 -45 107 0 108 0 -9 38 c-5 20 -9 40 -9 45 0 4 -40 7
-88 7 l-89 0 -10 -45z"/>
<path d="M327 63 c-3 -16 -9 -36 -12 -45 -7 -17 4 -18 134 -18 l141 0 -11 28
c-6 15 -10 28 -10 30 9 29 -1 32 -118 32 l-118 0 -6 -27z"/>
</g>
</svg>
