<?xml version="1.0" encoding="utf-8"?>
<!-- Generator: Adobe Illustrator 16.0.0, SVG Export Plug-In . SVG Version: 6.00 Build 0)  -->
<!DOCTYPE svg PUBLIC "-//W3C//DTD SVG 1.1//EN" "http://www.w3.org/Graphics/SVG/1.1/DTD/svg11.dtd">
<svg version="1.1" id="Capa_1" xmlns="http://www.w3.org/2000/svg" xmlns:xlink="http://www.w3.org/1999/xlink" x="0px" y="0px"
	 width="234.287px" height="234.289px" viewBox="0 0 234.287 234.289" enable-background="new 0 0 234.287 234.289"
	 xml:space="preserve">
<g>
	<path d="M104.584,131.84H49.228c-2.005,0-3.627,1.234-3.627,2.789v57.146c0,1.539,1.623,2.783,3.627,2.783h55.355
		c2.004,0,3.632-1.244,3.632-2.783v-57.146C108.208,133.078,106.589,131.84,104.584,131.84z"/>
	<path d="M183.86,131.84h-55.354c-2.002,0-3.625,1.234-3.625,2.789v57.146c0,1.539,1.623,2.783,3.625,2.783h55.354
		c2.015,0,3.646-1.244,3.646-2.783v-57.146C187.485,133.078,185.875,131.84,183.86,131.84z"/>
	<path d="M52.143,112.859c43.336,0,86.668,0,130.002,0c10.886,0,10.886-19.66,0-19.66c-43.334,0-86.667,0-130.002,0
		C41.26,93.199,41.26,112.859,52.143,112.859z"/>
	<path d="M201.824,2.264H32.465C14.61,2.264,0,16.41,0,33.699v198.326h234.287V33.699C234.287,16.41,219.683,2.264,201.824,2.264z
		 M214.033,211.547H20.255L20.144,74.431l194.02,0.5L214.033,211.547z"/>
</g>
</svg>
