<?xml version="1.0" encoding="utf-8"?>
<!-- Generator: Adobe Illustrator 16.0.0, SVG Export Plug-In . SVG Version: 6.00 Build 0)  -->
<!DOCTYPE svg PUBLIC "-//W3C//DTD SVG 1.1//EN" "http://www.w3.org/Graphics/SVG/1.1/DTD/svg11.dtd">
<svg version="1.1" id="Layer_1" xmlns="http://www.w3.org/2000/svg" xmlns:xlink="http://www.w3.org/1999/xlink" x="0px" y="0px"
	 width="50px" height="50px" viewBox="0 0 50 50" enable-background="new 0 0 50 50" xml:space="preserve">
<path d="M24.975,19l-4.999-1.52L14.977,19H15v7h4v-2h2v2h4v-7H24.975z M17.844,25.156H16v-1h1.844V25.156z M17.844,23.156H16v-1
	h1.844V23.156z M17.844,21.156H16v-1h1.844V21.156z M20.844,23.156H19v-1h1.844V23.156z M20.844,21.156H19v-1h1.844V21.156z
	 M23.844,25.156H22v-1h1.844V25.156z M23.844,23.156H22v-1h1.844V23.156z M23.844,21.156H22v-1h1.844V21.156z"/>
</svg>
