<?xml version="1.0" encoding="utf-8"?>
<!-- Generator: Adobe Illustrator 16.0.0, SVG Export Plug-In . SVG Version: 6.00 Build 0)  -->
<!DOCTYPE svg PUBLIC "-//W3C//DTD SVG 1.1//EN" "http://www.w3.org/Graphics/SVG/1.1/DTD/svg11.dtd">
<svg version="1.1" id="Capa_1" xmlns="http://www.w3.org/2000/svg" xmlns:xlink="http://www.w3.org/1999/xlink" x="0px" y="0px"
	 width="50px" height="50px" viewBox="0 0 50 50" enable-background="new 0 0 50 50" xml:space="preserve">
<path d="M13.646,31.76l13.399,4.268c-1.58,3.027-4.711,4.322-7.264,4.094c-2.373-0.211-5.015-1.637-5.96-4.652
	c-0.469-1.492,0.104-5.273-0.705-5.221c-1.061,0.07-1.358,2.438-1.01,4.715c0.626,4.096,3.027,6.273,6.847,6.92
	c2.311,0.393,6.97,0.197,9.693-5.352l10.674,3.381c0.494,0.168,1.008,0.256,1.529,0.256c4.623-0.014,8.225-6.902,8.2-15.684
	c-0.024-8.779-3.663-15.648-8.286-15.636c-0.522,0.002-1.033,0.093-1.527,0.264l-30.386,9.8c-1.163-2.349-1.871,2.175-1.871,2.175
	s-0.403,1.438-0.396,3.344c0.002,0.624,0.091,2.159,0.259,3.112c0.227,1.283,0.908,4.645,2.04,2.729l3.281,1.041l0.003,0.863
	 M40.846,38.162c-0.275,0-0.548-0.037-0.816-0.111c-0.004-0.002-0.008-0.004-0.014-0.006l-0.234-0.074
	c-3.092-1.109-5.547-6.977-5.564-13.802c-0.019-6.827,2.405-12.707,5.491-13.833l0.231-0.075c0.004-0.001,0.01-0.005,0.015-0.006
	c0.269-0.075,0.54-0.114,0.813-0.116c3.576-0.009,6.612,6.399,6.633,13.994C47.421,31.727,44.419,38.15,40.846,38.162z"/>
</svg>
