<?xml version="1.0" encoding="UTF-8" standalone="no"?>
<svg width="76px" height="74px" viewBox="0 0 76 74" version="1.1" xmlns="http://www.w3.org/2000/svg" xmlns:xlink="http://www.w3.org/1999/xlink">
    <!-- Generator: Sketch 3.8.3 (29802) - http://www.bohemiancoding.com/sketch -->
    <title>Action Button</title>
    <desc>Created with Sketch.</desc>
    <defs>
        <path d="M28,56 C43.463973,56 56,43.463973 56,28 C56,24.2036154 53.8755385,17.2824067 53.8755385,17.2824067 C53.8755385,17.2824067 50.3781082,10.7801285 47.7989899,8.20101013 C42.7319865,3.13400675 35.7319865,0 28,0 C12.536027,0 0,12.536027 0,28 C0,43.463973 12.536027,56 28,56 Z" id="path-1"></path>
        <filter x="-50%" y="-50%" width="200%" height="200%" filterUnits="objectBoundingBox" id="filter-2">
            <feOffset dx="0" dy="2" in="SourceAlpha" result="shadowOffsetOuter1"></feOffset>
            <feGaussianBlur stdDeviation="2.5" in="shadowOffsetOuter1" result="shadowBlurOuter1"></feGaussianBlur>
            <feColorMatrix values="0 0 0 0 0   0 0 0 0 0   0 0 0 0 0  0 0 0 0.26 0" type="matrix" in="shadowBlurOuter1" result="shadowMatrixOuter1"></feColorMatrix>
            <feOffset dx="0" dy="9" in="SourceAlpha" result="shadowOffsetOuter2"></feOffset>
            <feGaussianBlur stdDeviation="5" in="shadowOffsetOuter2" result="shadowBlurOuter2"></feGaussianBlur>
            <feColorMatrix values="0 0 0 0 0   0 0 0 0 0   0 0 0 0 0  0 0 0 0.3 0" type="matrix" in="shadowBlurOuter2" result="shadowMatrixOuter2"></feColorMatrix>
            <feMerge>
                <feMergeNode in="shadowMatrixOuter1"></feMergeNode>
                <feMergeNode in="shadowMatrixOuter2"></feMergeNode>
            </feMerge>
        </filter>
    </defs>
    <g id="Home-|-Live-|-Playback" stroke="none" stroke-width="1" fill="none" fill-rule="evenodd">
        <g id="O005_Home_Dash_003" transform="translate(-928.000000, -694.000000)">
            <g id="Action-Button" transform="translate(938.000000, 697.000000)">
                <g>
                    <g id="Oval-44">
                        <use fill="black" fill-opacity="1" filter="url(#filter-2)" xlink:href="#path-1"></use>
                        <use fill="#F1573C" fill-rule="evenodd" xlink:href="#path-1"></use>
                    </g>
                    <g id="add" transform="translate(21.000000, 21.000000)" fill="#FFFFFF">
                        <polygon id="Shape" points="14 8 8 8 8 14 6 14 6 8 0 8 0 6 6 6 6 0 8 0 8 6 14 6"></polygon>
                    </g>
                </g>
            </g>
        </g>
    </g>
</svg>