<?xml version="1.0" encoding="utf-8"?>
<!-- Generator: Adobe Illustrator 16.0.0, SVG Export Plug-In . SVG Version: 6.00 Build 0)  -->
<!DOCTYPE svg PUBLIC "-//W3C//DTD SVG 1.1//EN" "http://www.w3.org/Graphics/SVG/1.1/DTD/svg11.dtd">
<svg version="1.1" id="Capa_1" xmlns="http://www.w3.org/2000/svg" xmlns:xlink="http://www.w3.org/1999/xlink" x="0px" y="0px"
	 width="40.012px" height="40.012px" viewBox="0 0 40.012 40.012" enable-background="new 0 0 40.012 40.012" xml:space="preserve">
<path fill="#FFFFFF" d="M23.598,32.651c0-2.832,1.611-5.293,3.963-6.522c-0.591-0.38-1.06-0.772-1.29-1.085l-0.016-0.021
	l-0.005-0.009c-0.021-0.036-0.042-0.069-0.063-0.102l-0.018-0.027l-0.003-0.007L26.15,24.86v-0.002
	c-0.179-0.269-0.357-0.388-0.51-0.336l-0.01,0.005l-0.004,0.002l-0.001,0.003l-0.009,0.003l-0.008,0.002l-0.008,0.007
	c-0.183,0.094-0.146-0.009-0.221-0.207c-0.178-0.49-0.477-1.416-0.521-1.553c-0.066-0.256-0.256,0.397-0.213-0.31l0.075-1.278
	c0.122-0.13,0.222-0.237,0.289-0.313c0.435-0.497,0.466-1.81,0.685-2.13c0.22-0.32,0.651-0.391,1.09-1.879
	c0.435-1.491,0.968-3.62,0.406-3.655c-0.14-0.007-0.295,0.08-0.455,0.224c0.1-0.549,0.309-1.79,0.354-2.706
	c0.063-1.209-0.136-4.303-0.824-5.438C25.837,4.59,24.97,3.888,24.108,3.34c-0.517-0.33-1.031-0.603-1.455-0.788
	c-1.258-0.558-5.221-0.301-6.562,0c-1.528,0.342-2.6,1.302-3.285,2.438c-0.684,1.136-0.988,4.539-0.928,5.745
	c0.031,0.542,0.353,1.456,0.437,2.015c0.048,0.291,0.092,0.294,0.127,0.502c-0.059-0.022-0.111-0.034-0.166-0.031
	c-0.561,0.035-0.03,2.164,0.405,3.655c0.438,1.489,0.87,1.559,1.089,1.879c0.221,0.32,0.249,1.633,0.688,2.13
	c0.068,0.078,0.174,0.193,0.304,0.332l0.083,1.044l0.146,0.58c-0.067-0.167-0.198-0.276-0.262-0.057
	c-0.187,0.567-0.375,1.141-0.563,1.71c-0.021-0.027-0.05-0.046-0.086-0.05c-0.182-0.159-0.424-0.021-0.647,0.352
	c-0.331,0.549-1.421,1.338-2.685,1.909l-0.021,0.065l-0.019,0.067l-0.007,0.026c-0.102,0.045-0.199,0.087-0.303,0.127l-6.67,2.671
	c-1.427,0.569-2.623,0.61-2.631,2.314L0,37.789h25.698C24.401,36.461,23.598,34.65,23.598,32.651z"/>
<g>
	<g>
		<path fill="#FFFFFF" d="M30.707,25.332c-4.046,0-7.34,3.294-7.34,7.34s3.294,7.34,7.34,7.34s7.34-3.294,7.34-7.34
			S34.753,25.332,30.707,25.332z M30.707,38.809c-3.384,0-6.138-2.753-6.138-6.137s2.754-6.137,6.138-6.137s6.137,2.753,6.137,6.137
			S34.091,38.809,30.707,38.809z"/>
		<path fill="#FFFFFF" d="M34.244,32.071h-2.937v-2.936c0-0.333-0.269-0.602-0.602-0.602s-0.603,0.269-0.603,0.602v2.936H27.17
			c-0.333,0-0.603,0.27-0.603,0.603s0.27,0.602,0.603,0.602h2.936v2.937c0,0.333,0.27,0.602,0.603,0.602s0.602-0.269,0.602-0.602
			v-2.937h2.937c0.333,0,0.602-0.269,0.602-0.602S34.577,32.071,34.244,32.071z"/>
	</g>
</g>
</svg>
